<svg xmlns="http://www.w3.org/2000/svg" width="69" height="26" viewBox="0 0 69 26">
    <g fill="none" fill-rule="evenodd">
        <path fill="#FFF" d="M57.392 13.84c-.046.694-.173 1.363-.502 1.983-.373.702-.944 1.173-1.686 1.444-1.081.393-2.203.339-3.322.29-.446-.02-.891-.064-1.365-.099v-.327c0-2.966.002-5.931-.005-8.897 0-.223.04-.334.286-.378.944-.169 1.886-.262 2.845-.136.666.088 1.292.265 1.867.62.71.437 1.198 1.055 1.496 1.822.461 1.19.47 2.429.386 3.679zm2.75-4.817c-.6-1.466-1.62-2.535-3.05-3.21-.948-.448-1.956-.674-2.996-.764-1.996-.172-3.96.022-5.895.532-.726.191-.954.5-.987 1.262-.006.133-.01.266-.01.399v17.597c0 .075 0 .15.002.224.016.407.107.5.508.5.731.003 1.462.002 2.193 0 .49 0 .61-.12.61-.621v-5.035-.297c.053 0 .08-.007.102 0 .156.052.31.112.468.159 1.639.488 3.298.658 4.988.306.993-.207 1.867-.655 2.611-1.343 1.25-1.155 1.832-2.635 1.992-4.29.072-.742.06-1.494.056-2.24-.007-1.094-.176-2.16-.593-3.18zM35.74 5.217c-.797-.014-1.595-.007-2.392-.002-.284.002-.48.137-.573.418-.298.908-.599 1.816-.902 2.722-.485 1.446-.974 2.89-1.458 4.336-.367 1.098-.728 2.198-1.094 3.296-.093.277-.198.55-.297.825l-.064-.014c-.61-1.821-1.22-3.643-1.828-5.464-.311-.93-.62-1.861-.932-2.79-.319-.947-.645-1.892-.96-2.84-.125-.373-.222-.48-.618-.486-.789-.014-1.578-.014-2.368-.003-.375.005-.506.2-.391.559.281.88.568 1.758.86 2.635.371 1.116.751 2.229 1.123 3.345.375 1.128.743 2.26 1.117 3.388.428 1.289.867 2.573 1.285 3.865.292.902.453 1.035 1.397 1.035.814 0 1.629.002 2.443 0 .265-.002.53-.012.796-.026.358-.02.582-.23.694-.55.254-.728.496-1.458.738-2.19.213-.642.417-1.288.631-1.931.322-.963.651-1.924.972-2.887.277-.83.542-1.663.819-2.492.464-1.389.937-2.775 1.399-4.165.123-.37-.012-.577-.397-.584M12.118 17.535h-3.64c-1.22-.002-2.443.016-3.663-.017-.769-.02-1.198-.388-1.298-1.19-.033-.271-.044-.547-.045-.82C3.47 10.53 3.471 5.554 3.47.577c0-.476-.094-.574-.565-.575C2.141-.001 1.377 0 .612 0c-.532 0-.61.077-.61.602v8.05c0 2.502-.009 5.003.008 7.503.004.585.056 1.177.156 1.753.168.969.706 1.67 1.64 2.046.728.294 1.493.395 2.266.408 2.692.047 5.381-.045 8.065-.287.435-.04.579-.165.589-.602.01-.44.004-.88.003-1.321-.003-.515-.105-.618-.611-.618M41.933 5.21c-.698-.002-1.396-.003-2.094.001-.459.003-.576.119-.576.58V19.5c0 .431.113.54.553.542.673.002 1.346 0 2.02 0 .69 0 .736-.044.737-.732v-6.655l-.001-6.805c0-.541-.098-.637-.639-.64M18.702 5.545c-.05-.113-.145-.234-.253-.288-.11-.056-.26-.045-.391-.045-.673-.004-1.346-.003-2.02-.002-.507 0-.615.106-.615.612v13.66c0 .452.106.558.558.56.707.002 1.413.001 2.12 0 .54 0 .62-.08.62-.616v-6.78-6.755c0-.117.025-.247-.019-.346"/>
        <path fill="#B63366" d="M66.02 15.959c-1.549-.005-2.794 1.237-2.797 2.796.002 1.514 1.26 2.763 2.778 2.76 1.547-.005 2.77-1.238 2.78-2.783.01-1.54-1.262-2.768-2.76-2.773"/>
    </g>
</svg>
