<svg xmlns="http://www.w3.org/2000/svg" width="55" height="42" viewBox="0 0 55 42">
    <g fill="#421428">
        <path d="M9.684 27.882v5.072c5.045 2.272 11.084 3.502 17.44 3.502 7.206 0 14.004-1.579 19.407-4.468v-5.015c4.423-2.01 7.49-6.379 7.49-11.449 0-6.974-5.8-12.627-12.957-12.627-1.884 0-3.674.395-5.29 1.101C33.487 1.861 30.417.552 27.04.552c-3.328 0-6.359 1.27-8.635 3.352-1.634-.756-3.453-1.182-5.372-1.182C5.96 2.722.229 8.454.229 15.525c0 5.912 4.008 10.885 9.456 12.357z"/>
        <path d="M27.125 39.35c-6.271 0-12.276-1.136-17.44-3.249v2.043c0 2.13 3.306 3.858 7.385 3.858h22.076c4.08 0 7.385-1.727 7.385-3.858v-2.912c-5.576 2.67-12.321 4.118-19.406 4.118z"/>
    </g>
</svg>
