<svg xmlns="http://www.w3.org/2000/svg" width="52" height="52" viewBox="0 0 52 52">
    <g fill="#421428">
        <path d="M44.8 0H6.4C2.88 0 0 2.88 0 6.4v42.64c0 .8.48 1.6 1.2 1.92.32.16.64.24.96.24.48 0 .96-.16 1.36-.48L16.08 40c1.2-.96 2.64-1.52 4.16-1.52H44.8c3.52 0 6.4-2.88 6.4-6.4V6.4c0-3.52-2.88-6.4-6.4-6.4zm2.16 32c0 1.2-.96 2.16-2.16 2.16H20.24c-2.56 0-5.04.88-6.96 2.56L4.24 44.4v-38c0-1.2.96-2.16 2.16-2.16h38.4c1.2 0 2.16.96 2.16 2.16V32z"/>
        <path d="M36.24 12.56H14.96c-1.2-.08-2.16.8-2.24 2-.08 1.2.8 2.16 2 2.24H36.32c1.2.08 2.16-.8 2.24-2 .08-1.2-.8-2.16-2-2.24h-.32zM36.24 21.12H14.96c-1.2-.08-2.16.8-2.24 2-.08 1.2.8 2.16 2 2.24H36.32c1.2.08 2.16-.8 2.24-2 .08-1.2-.8-2.16-2-2.24h-.32z"/>
    </g>
</svg>
