<svg xmlns="http://www.w3.org/2000/svg" width="51" height="56" viewBox="0 0 51 56">
    <g fill="#421428">
        <path d="M18.142 44.363c-.546-.059-1.742-.28-2.61-1.088-.991-.923-1.193-2.118-1.235-2.583V20.853c0-1.705-1.383-3.09-3.09-3.09-1.671 0-3.025 1.331-3.079 2.991v15.829l-.01.211v1.612c.047 1.411.227 3.49.804 5.705.987 3.79 4.098 6.13 4.13 6.154.333.247.431.74.157 1.051-.24.273-.916.188-1.05.089-.125-.092-2.668-1.998-4.095-5.275L0 56h21.626s4.46-1.1 8.398-4.07c3.474-2.62 5.595-6.557 5.944-7.567H18.142zM48.39 16.658h-2.222v5.01h2.222c1.38 0 2.504-1.124 2.504-2.506 0-1.38-1.123-2.504-2.504-2.504zM50.894 31.434c0-1.331-1.046-2.414-2.358-2.49 1.312-.077 2.358-1.158 2.358-2.49 0-1.382-1.123-2.505-2.504-2.505h-2.222l-.028 14.975h2.222c1.38 0 2.504-1.124 2.504-2.506 0-1.333-1.05-2.416-2.365-2.49 1.328-.06 2.393-1.15 2.393-2.494z"/>
        <path d="M41.365.152H19.078c-1.845 0-3.346 1.501-3.346 3.346V39.54c0 1.846 1.5 3.346 3.346 3.346h22.287c1.845 0 3.346-1.5 3.346-3.346V3.498c0-1.845-1.5-3.346-3.346-3.346zM30.28 41.238c-.7 0-1.266-.567-1.266-1.266 0-.7.567-1.267 1.266-1.267.7 0 1.267.567 1.267 1.267s-.568 1.266-1.267 1.266zm11.516-4.21H18.647V5.816h23.15v31.214z"/>
    </g>
</svg>
