<svg xmlns="http://www.w3.org/2000/svg" width="60" height="40" viewBox="0 0 60 40">
    <path fill="#421428" d="M59.631 24.447c0-.403-.204-.675-.204-.675l-.078-6.073s.034-.713-.342-1.02c-.376-.31-3.438-2.822-3.438-2.822s-.272-.903-1.623-1.429l-.966-.812v-.308h.889s.183.392.386.386c.202-.007 1.134-.036 2.125-.116.992-.08 1.778-.619 1.778-.619s.494-.708.308-1.7c-.186-.991-2.472-1.352-2.472-1.352s-2.235-.197-2.764-.197c-.509.014-.33.627-.33.627s.248 1.177.31 1.502c.065.325-1.158-.386-1.158-.386s-3.63-5.723-5.555-7.006c-1.088-.846-2.205-1.365-2.205-1.365s-6.408-1.137-8.78-1.02l-.23.281H24.878l-.23-.28c-2.373-.119-8.78 1.02-8.78 1.02s-1.118.518-2.206 1.364C11.738 3.73 8.11 9.453 8.11 9.453s-1.223.711-1.16.386c.063-.324.312-1.502.312-1.502s.18-.613-.331-.627c-.528 0-2.762.197-2.762.197s-2.288.36-2.474 1.352c-.184.992.31 1.7.31 1.7s.786.539 1.777.62c.99.08 1.923.108 2.126.115.202.007.386-.386.386-.386h.89v.308l-.967.812c-1.351.526-1.623 1.43-1.623 1.43l-3.44 2.82C.778 16.986.812 17.7.812 17.7l-.077 6.073s-.206.272-.206.675S.45 35.65.72 36.93c.21 2.095 1.248 2.317 1.248 2.317l6.607.146s.588-.338.822-.822c.235-.483.352-2.172.352-2.172l3.906.263.53-.47 3.552.118.576.616 11.768-.13 11.768.13.576-.616 3.554-.117.529.469 3.904-.263s.119 1.689.353 2.172c.234.484.823.822.823.822l6.606-.146s1.038-.222 1.248-2.317c.271-1.28.19-12.08.19-12.483zM14.93 2.236c2.981-.589 15.115-.757 15.212-.757.095 0 12.23.168 15.211.757 3.543 3.198 5.644 7.539 5.644 7.539s-6.984 1.05-19.6.968h-2.51c-12.615.083-19.6-.968-19.6-.968s2.1-4.341 5.643-7.54zm24.935 16.782l1.352.012-1.183 5.296c-.388.15-.74.247-1.005.305l.836-5.613zm-1.551 5.7h-.9L37.976 19l1.227.012-.89 5.707zm3.538-5.65c.4.055.89.19 1.084.518.347.592.072 1.667.072 1.667s-.292 1.266-1.246 2.071c-.364.308-.752.551-1.129.739l1.219-4.995zm-4.53-.073l-.566 5.724h-1.119l.275-5.738 1.41.014zm-2.009-.02l-.273 5.744H33.96l.268-5.754 1.084.01zm-1.798-.017l-.219 5.76h-1.042v-5.77h.105l1.156.01zm-4.923-1.33c0-.401.57-.727 1.273-.727.704 0 1.273.325 1.273.727 0 .402-.57.727-1.273.727s-1.273-.325-1.273-.727zm.912 2.635v3.32s-.036.604-.256.86c-.22.257-.77.276-.77.276h-.186l-.023-5.688c.274.067.577.19.814.414.421.379.421.818.421.818zm.912 0s0-.44.42-.818c.237-.223.54-.347.814-.414l-.023 5.688h-.185s-.55-.019-.77-.275c-.22-.256-.257-.862-.257-.862v-3.319zm-2.75-1.315v5.77h-1.043l-.219-5.76 1.156-.01h.106zm-1.707 5.77h-1.079l-.273-5.743 1.085-.01.267 5.754zm-1.678 0h-1.118l-.565-5.723 1.41-.014.273 5.738zm-5.578-5.688l1.352-.012.835 5.613c-.264-.058-.616-.154-1.005-.305l-1.182-5.296zm.584 5.033c-.376-.187-.764-.43-1.13-.738-.953-.806-1.246-2.071-1.246-2.071s-.275-1.076.073-1.667c.193-.329.684-.464 1.084-.519l1.219 4.995zm1.428-5.051L21.943 19l.562 5.719h-.9l-.89-5.707zm-7.726 12.555s-.278.447-.575.596c-.22.109-.597.124-.781.124h-.107l-6.537-.685-.018.001c-.096 0-.542-.01-.81-.192-.301-.203-.4-.802-.4-.802v-2.192s.077-.935.333-1.255c.255-.32.925-.396 1.025-.405.82.006 1.21.618 4.044 1.434 1.628.338 4.251.928 4.251.928l-.425 2.448zm2.136-8.903c-.113.209-.731.175-.731.175l-8.524-.513s-.765-.146-1.445-.8-.857-1.552-.857-2.21v-1.399c.004-.681.517-1.268 1.06-1.496.542-.229 1.433-.051 1.433-.051l4.566 1.236s1.541.552 2.454 1.598c.913 1.048 1.884 2.798 1.884 2.798s.274.453.16.662zm27.768 11.094c-.349.065-7.598.63-11.556.63-.331 0-.639-.005-.918-.014l-.46-.002-.462.002c-.28.009-.587.014-.917.014-3.96 0-11.208-.565-11.556-.63-.378-.071-.756-.161-.758-.762-.002-.6.635-2.844.635-2.844s.243-.92 1.143-1.428c.654-.347 1.284-.378 1.48-.378.04 0 .062.002.062.002H40.328s.02-.002.063-.002c.195 0 .826.031 1.48.378.9.509 1.142 1.428 1.142 1.428s.638 2.245.636 2.844c-.003.6-.38.691-.757.762zm13.17-3.149s-.1.599-.4.802c-.267.181-.714.192-.81.192l-.017-.001-6.537.684-.107.001c-.185 0-.563-.015-.782-.124-.299-.148-.574-.596-.574-.596l-.427-2.448s2.624-.59 4.252-.927c2.835-.817 3.224-1.428 4.044-1.434.1.009.77.086 1.025.405.256.32.333 1.255.333 1.255v2.191zm.16-11.293c0 .658-.175 1.557-.856 2.21-.68.654-1.446.8-1.446.8l-8.524.514s-.616.034-.73-.176c-.114-.208.16-.66.16-.66s.97-1.75 1.884-2.798c.912-1.047 2.453-1.598 2.453-1.598l4.566-1.237s.894-.178 1.435.051c.542.228 1.054.815 1.058 1.497v1.397z"/>
</svg>
