<svg xmlns="http://www.w3.org/2000/svg" width="24" height="60" viewBox="0 0 24 60">
    <path fill="#421428" stroke="#421428" d="M13.207 54.989V36.313c.85-.206 1.444-.657 1.455-1.183 4.776-1.868 8.332-8.959 8.332-17.427 0-.11-.004-.219-.005-.327-.015-.627-.082-2.13-.358-4.275-.045-.35-.097-.763-.153-1.22-.39-3.118-1.074-8.376-2.273-11.227H4.113C2.914 3.505 2.23 8.764 1.84 11.88c-.057.458-.107.87-.153 1.22-.276 2.144-.342 3.647-.357 4.275-.002.108-.005.218-.005.327 0 8.468 3.555 15.559 8.332 17.427.011.526.604.976 1.455 1.183V54.99c-5.61.098-10 .98-10 2.054 0 1.14 4.945 2.063 11.047 2.063 6.1 0 11.047-.924 11.047-2.063.001-1.075-4.39-1.956-10-2.054zM4.97 1.866H19.35c1 2.455 1.599 7.032 1.958 10.015H3.012c.359-2.983.958-7.56 1.959-10.015z"/>
</svg>
