<svg xmlns="http://www.w3.org/2000/svg" width="14" height="14" viewBox="0 0 14 14">
    <path fill="#FFF" fill-rule="evenodd" d="M12.687 2.555c0 .47-.391.851-.875.851h-.875c-.483 0-.875-.38-.875-.851v-.426c0-.47.392-.852.875-.852h.875c.484 0 .875.382.875.852v.426zM11.375 0C12.825 0 14 1.144 14 2.555v8.515c0 1.411-1.175 2.555-2.625 2.555h-8.75C1.175 13.625 0 12.481 0 11.07V2.555c0-.756.34-1.433.875-1.9V11.07c0 .941.783 1.704 1.75 1.704h8.75c.966 0 1.75-.763 1.75-1.704V4.258h-3.71c-.636-.57-1.483-.92-2.415-.92-.933 0-1.779.35-2.415.92H3.5V0zm-4.31 4.667c1.471 0 2.664 1.16 2.664 2.593 0 1.432-1.193 2.593-2.664 2.593-1.472 0-2.665-1.16-2.665-2.593 0-1.432 1.193-2.593 2.665-2.593zm0 .864c-.982 0-1.777.774-1.777 1.73 0 .954.795 1.729 1.777 1.729.981 0 1.777-.775 1.777-1.73s-.796-1.73-1.777-1.73z"/>
</svg>
