<svg xmlns="http://www.w3.org/2000/svg" width="14" height="14" viewBox="0 0 14 14">
    <path fill="#FFF" fill-rule="evenodd" d="M11.96 2.035C10.644.723 8.894 0 7.03 0 3.186 0 .06 3.112.057 6.937c0 1.223.32 2.416.93 3.468L0 14l3.695-.965c1.018.553 2.165.844 3.331.845h.003c3.842 0 6.97-3.113 6.971-6.938 0-1.853-.724-3.596-2.04-4.907zM7.03 12.708h-.003c-1.04 0-2.06-.278-2.949-.804l-.212-.125-2.192.573.585-2.128-.138-.218c-.58-.918-.886-1.98-.886-3.069.002-3.179 2.6-5.765 5.797-5.765 1.547 0 3.002.6 4.096 1.69 1.094 1.09 1.696 2.54 1.695 4.08-.001 3.18-2.6 5.766-5.794 5.766zm1.987-4.882c-.16-.058-.276-.087-.392.086-.116.174-.45.564-.551.68-.102.116-.203.13-.378.043-.174-.086-.735-.27-1.4-.86-.518-.46-.868-1.027-.97-1.2-.1-.174-.01-.268.077-.354.079-.078.174-.203.261-.304.087-.101.117-.174.175-.29.058-.115.029-.216-.015-.303-.043-.087-.392-.94-.537-1.287-.141-.338-.285-.292-.392-.298-.101-.005-.218-.006-.334-.006-.116 0-.304.044-.464.217-.16.174-.61.593-.61 1.446s.624 1.678.711 1.793c.088.116 1.229 1.867 2.976 2.618.415.178.74.285.993.365.417.132.797.113 1.097.069.335-.05 1.03-.42 1.176-.825.145-.405.145-.752.101-.824-.043-.072-.16-.116-.334-.202-.174-.087-1.03-.507-1.19-.564z"/>
</svg>
